# Blender 4.3.2
# www.blender.org
mtllib usp.mtl
o w_usp
v -4.860034 1.705397 -0.035318
v -4.899527 -0.291403 -0.016945
v -4.541311 1.688379 -0.040386
v -4.354044 1.438986 -0.034479
v -2.698281 -0.346169 -0.012804
v 1.185368 1.326714 -0.024224
v -2.114467 -0.400583 -0.012535
v 2.865600 -0.309890 -0.008369
v -0.096286 -0.429180 -0.006957
v 2.078623 -0.794103 -0.005974
v 0.087755 -1.365624 -0.008131
v 0.086828 -1.601597 -0.004128
v -1.923757 -1.302194 -0.007217
v -2.217001 -1.553970 -0.003206
v -2.693032 -0.348687 -0.759575
v -1.920051 -1.326795 -0.757138
v -2.208169 -1.565821 -0.749786
v 0.092077 -1.604115 -0.750898
v 0.084293 -1.371558 -0.758433
v 2.075163 -0.800037 -0.756275
v -0.096385 -0.434016 -0.766613
v 2.865501 -0.314725 -0.768025
v 1.190617 1.324195 -0.770995
v 2.369820 1.273386 -0.770168
v 1.315629 1.511303 -0.778916
v 2.393569 1.485872 -0.779422
v -10.799117 1.648650 -0.283896
v -10.816125 1.115515 0.160489
v -4.892061 1.000685 0.158993
v -4.908576 0.439062 -0.276444
v -10.824151 0.567741 -0.280962
v -4.899747 0.642433 -0.976346
v -10.820672 0.768795 -0.993749
v -4.894704 1.308501 -0.981771
v -10.810503 1.447613 -0.995832
v -4.887126 1.529306 -0.279569
v -4.530713 1.688177 -0.774271
v -4.352158 1.435369 -0.771896
v -4.902766 -0.307769 -0.757702
v -2.117927 -0.406517 -0.762837
v -4.894073 0.986987 -0.474101
v -10.809426 1.105233 -0.469073
v 2.847301 -2.667436 -0.741070
v 0.815845 -4.165093 -0.738380
v 2.936111 -4.133049 -0.731754
v 2.939572 -4.127115 0.018547
v 2.842052 -2.664916 0.005701
v 0.819306 -4.159159 0.011922
v 2.369698 1.288654 -0.020057
v 1.319089 1.517238 -0.028614
v 2.397029 1.491806 -0.029120
v -4.866856 1.698363 -0.776267
vn -0.0001 0.0072 1.0000
vn -0.0000 0.0072 1.0000
vn -0.0002 0.0072 1.0000
vn -0.0002 0.0073 1.0000
vn 0.0002 -0.0072 -1.0000
vn 0.0003 -0.0072 -1.0000
vn 0.0152 0.8705 0.4920
vn -0.0050 -0.2517 0.9678
vn 0.0029 0.2709 0.9626
vn -0.0161 -0.8635 0.5041
vn -0.0216 -0.9954 0.0934
vn -0.0165 -0.7816 -0.6235
vn -0.0080 -0.3968 -0.9179
vn 0.0086 0.3807 -0.9247
vn 0.0162 0.7726 -0.6347
vn 0.0211 0.9967 0.0789
vn 0.0003 -0.0075 -1.0000
vn 0.0001 -0.0074 -1.0000
vn 0.0002 -0.0071 -1.0000
vn 0.9998 -0.0198 0.0004
vn -0.9998 0.0201 -0.0004
vn -0.9998 0.0200 -0.0004
vn -0.9998 0.0197 -0.0004
vn 0.0003 -0.0071 -1.0000
vn 0.9246 0.3809 -0.0025
vn 0.9981 0.0621 -0.0002
vn 0.0131 -0.9999 0.0072
vn -0.9616 -0.2744 0.0017
vn -0.9616 -0.2745 0.0017
vn -0.9290 -0.3700 0.0025
vn 0.0200 0.9998 -0.0072
vn 0.8080 0.5892 -0.0042
vn 0.0200 0.9998 -0.0073
vn -0.8346 0.5508 -0.0041
vn 0.9934 -0.1146 0.0011
vn 0.9548 0.2972 -0.0019
vn 0.9548 0.2973 -0.0019
vn 0.5229 -0.8524 0.0061
vn 0.5228 -0.8524 0.0062
vn -0.9816 -0.1908 0.0012
vn -0.9816 -0.1907 0.0012
vn 0.9787 0.2055 -0.0012
vn 0.9786 0.2055 -0.0012
vt 0.546875 0.859375
vt 0.546875 0.570313
vt 0.531250 0.859375
vt 0.523438 0.820313
vt 0.398438 0.570313
vt 0.125000 0.820313
vt 0.363281 0.562500
vt 0.011719 0.585938
vt 0.218750 0.562500
vt 0.070313 0.507813
vt 0.207031 0.429688
vt 0.203125 0.390625
vt 0.351563 0.429688
vt 0.367188 0.390625
vt 0.054688 0.820313
vt 0.121094 0.851563
vt 0.054688 0.851563
vt 0.976563 0.820313
vt 0.976563 0.734375
vt 0.585938 0.734375
vt 0.585938 0.679688
vt 0.976563 0.679688
vt 0.585938 0.710938
vt 0.976563 0.710938
vt 0.585938 0.773438
vt 0.976563 0.773438
vt 0.585938 0.820313
vt 0.585938 0.757813
vt 0.585938 0.828125
vt 0.585938 0.804688
vt 0.976563 0.757813
vt 0.976563 0.828125
vt 0.976563 0.804688
vt 0.015625 0.218750
vt 0.140625 0.015625
vt 0.007813 0.015625
vt 0.566406 1.000000
vt 0.566406 0.882813
vt 0.539063 1.000000
vt 0.539063 0.882813
vt 0.523438 1.000000
vt 0.523438 0.882813
vt 0.121094 1.000000
vt 0.121094 0.882813
vt 0.113281 1.000000
vt 0.113281 0.882813
vt 0.000000 1.000000
vt 0.000000 0.882813
vt 0.351563 0.445313
vt 0.363281 0.539063
s 1
usemtl usp_skin.png
f 1/1/1 2/2/1 3/3/1
f 3/3/1 2/2/1 4/4/1
f 2/2/1 5/5/1 4/4/1
f 4/4/1 5/5/1 6/6/1
f 5/5/1 7/7/2 6/6/1
f 6/6/1 7/7/2 8/8/3
f 7/7/2 9/9/1 8/8/3
f 8/8/3 9/9/1 10/10/1
f 9/9/1 11/11/1 10/10/1
f 10/10/1 11/11/1 12/12/4
f 11/11/1 13/13/1 12/12/4
f 12/12/4 13/13/1 14/14/1
f 13/13/1 5/5/1 14/14/1
f 15/5/5 16/13/6 17/14/6
f 17/14/6 16/13/6 18/12/6
f 16/13/6 19/11/6 18/12/6
f 18/12/6 19/11/6 20/10/6
f 19/11/6 21/9/6 20/10/6
f 20/10/6 21/9/6 22/8/5
f 21/9/6 23/6/6 22/8/5
f 22/8/5 23/6/6 24/15/6
f 23/6/6 25/16/6 24/15/6
f 24/15/6 25/16/6 26/17/6
f 27/18/7 28/19/8 29/20/9
f 29/20/9 28/19/8 30/21/10
f 28/19/8 31/22/11 30/21/10
f 30/21/10 31/22/11 32/23/12
f 31/22/11 33/24/13 32/23/12
f 32/23/12 33/24/13 34/25/14
f 33/24/13 35/26/15 34/25/14
f 34/25/14 35/26/15 36/27/16
f 35/26/15 27/18/7 36/27/16
f 36/27/16 27/18/7 29/20/9
f 37/3/6 38/4/17 39/2/18
f 39/2/18 38/4/17 15/5/5
f 38/4/17 23/6/6 15/5/5
f 15/5/5 23/6/6 40/7/19
f 23/6/6 21/9/6 40/7/19
f 41/28/20 36/29/20 29/28/20
f 41/28/20 34/30/20 36/29/20
f 41/28/20 32/23/20 34/30/20
f 41/28/20 30/21/20 32/23/20
f 41/28/20 29/28/20 30/21/20
f 42/31/21 28/31/22 27/32/23
f 42/31/21 31/22/22 28/31/22
f 42/31/21 33/24/22 31/22/22
f 42/31/21 35/33/22 33/24/22
f 42/31/21 27/32/23 35/33/22
f 20/10/6 43/34/24 18/12/6
f 18/12/6 43/34/24 44/35/24
f 43/34/24 45/36/6 44/35/24
f 46/36/1 47/34/1 48/35/1
f 48/35/1 47/34/1 12/12/4
f 47/34/1 10/10/1 12/12/4
f 8/8/3 49/15/1 6/6/1
f 6/6/1 49/15/1 50/16/1
f 49/15/1 51/17/1 50/16/1
f 20/10/25 10/10/25 43/34/25
f 43/34/25 10/10/25 47/34/25
f 43/34/26 47/34/26 45/36/26
f 45/36/26 47/34/26 46/36/26
f 45/36/27 46/36/27 44/35/27
f 44/35/27 46/36/27 48/35/27
f 44/35/28 48/35/29 18/12/29
f 18/12/29 48/35/29 12/12/29
f 18/12/27 12/12/27 17/14/27
f 17/14/27 12/12/27 14/14/27
f 17/14/30 14/14/30 15/5/30
f 15/5/30 14/14/30 5/5/30
f 15/5/27 5/5/27 39/2/27
f 39/2/27 5/5/27 2/2/27
f 39/2/22 2/2/22 52/1/22
f 52/1/22 2/2/22 1/1/22
f 52/37/31 1/38/31 37/39/31
f 37/39/31 1/38/31 3/40/31
f 37/39/32 3/40/32 38/41/32
f 38/41/32 3/40/32 4/42/32
f 38/41/31 4/42/33 23/43/31
f 23/43/31 4/42/33 6/44/31
f 23/43/34 6/44/34 25/45/34
f 25/45/34 6/44/34 50/46/34
f 25/45/31 50/46/31 26/47/31
f 26/47/31 50/46/31 51/48/31
f 26/17/35 51/17/35 24/15/35
f 24/15/35 51/17/35 49/15/35
f 24/15/36 49/15/36 22/8/36
f 22/8/36 49/15/36 8/8/37
f 22/8/38 8/8/39 20/10/39
f 20/10/39 8/8/39 10/10/39
f 19/11/31 16/13/31 11/11/31
f 11/11/31 16/13/31 13/13/31
f 11/11/40 9/9/40 19/11/40
f 19/11/40 9/9/40 21/9/41
f 7/7/42 13/49/43 40/50/43
f 40/50/43 13/49/43 16/13/43
f 40/7/27 21/9/27 7/7/27
f 7/7/27 21/9/27 9/9/27
f 7/7/2 5/5/1 13/49/1
f 15/5/5 40/50/19 16/13/6
f 52/1/6 37/3/6 39/2/18
